<svg width="267" height="24" viewBox="0 0 267 24" fill="none" xmlns="http://www.w3.org/2000/svg">
<path d="M51.152 12.272H53.12V16.736C52.544 17.1947 51.872 17.5467 51.104 17.792C50.336 18.0373 49.5467 18.16 48.736 18.16C47.5947 18.16 46.5653 17.9147 45.648 17.424C44.7307 16.9227 44.0107 16.2347 43.488 15.36C42.9653 14.4853 42.704 13.4987 42.704 12.4C42.704 11.3013 42.9653 10.3147 43.488 9.44C44.0107 8.56533 44.7307 7.88267 45.648 7.392C46.576 6.89067 47.616 6.64 48.768 6.64C49.7067 6.64 50.56 6.79467 51.328 7.104C52.096 7.41333 52.7413 7.86667 53.264 8.464L51.952 9.744C51.0987 8.89067 50.0693 8.464 48.864 8.464C48.0747 8.464 47.3707 8.62933 46.752 8.96C46.144 9.29067 45.664 9.75467 45.312 10.352C44.9707 10.9493 44.8 11.632 44.8 12.4C44.8 13.1467 44.9707 13.8187 45.312 14.416C45.664 15.0133 46.144 15.4827 46.752 15.824C47.3707 16.1653 48.0693 16.336 48.848 16.336C49.7227 16.336 50.4907 16.144 51.152 15.76V12.272ZM55.6714 9.456H57.6714V18H55.6714V9.456ZM56.6794 8.048C56.3167 8.048 56.0127 7.936 55.7674 7.712C55.522 7.47733 55.3994 7.18933 55.3994 6.848C55.3994 6.50667 55.522 6.224 55.7674 6C56.0127 5.76533 56.3167 5.648 56.6794 5.648C57.042 5.648 57.346 5.76 57.5914 5.984C57.8367 6.19733 57.9594 6.46933 57.9594 6.8C57.9594 7.152 57.8367 7.45067 57.5914 7.696C57.3567 7.93067 57.0527 8.048 56.6794 8.048ZM63.5604 9.36C64.819 9.36 65.779 9.664 66.4404 10.272C67.1124 10.8693 67.4484 11.776 67.4484 12.992V18H65.5604V16.96C65.315 17.3333 64.963 17.6213 64.5044 17.824C64.0564 18.016 63.5124 18.112 62.8724 18.112C62.2324 18.112 61.6724 18.0053 61.1924 17.792C60.7124 17.568 60.339 17.264 60.0724 16.88C59.8164 16.4853 59.6884 16.0427 59.6884 15.552C59.6884 14.784 59.971 14.1707 60.5364 13.712C61.1124 13.2427 62.0137 13.008 63.2404 13.008H65.4484V12.88C65.4484 12.2827 65.267 11.824 64.9044 11.504C64.5524 11.184 64.0244 11.024 63.3204 11.024C62.8404 11.024 62.3657 11.0987 61.8964 11.248C61.4377 11.3973 61.0484 11.6053 60.7284 11.872L59.9444 10.416C60.3924 10.0747 60.931 9.81333 61.5604 9.632C62.1897 9.45067 62.8564 9.36 63.5604 9.36ZM63.2884 16.656C63.7897 16.656 64.2324 16.544 64.6164 16.32C65.011 16.0853 65.2884 15.7547 65.4484 15.328V14.336H63.3844C62.2324 14.336 61.6564 14.7147 61.6564 15.472C61.6564 15.8347 61.8004 16.1227 62.0884 16.336C62.3764 16.5493 62.7764 16.656 63.2884 16.656ZM73.9333 18.112C73.0693 18.112 72.2906 17.9253 71.5973 17.552C70.9039 17.1787 70.3599 16.6613 69.9653 16C69.5813 15.328 69.3893 14.5707 69.3893 13.728C69.3893 12.8853 69.5813 12.1333 69.9653 11.472C70.3599 10.8107 70.9039 10.2933 71.5973 9.92C72.2906 9.54667 73.0693 9.36 73.9333 9.36C74.8079 9.36 75.5919 9.54667 76.2853 9.92C76.9786 10.2933 77.5173 10.8107 77.9013 11.472C78.2959 12.1333 78.4933 12.8853 78.4933 13.728C78.4933 14.5707 78.2959 15.328 77.9013 16C77.5173 16.6613 76.9786 17.1787 76.2853 17.552C75.5919 17.9253 74.8079 18.112 73.9333 18.112ZM73.9333 16.4C74.6693 16.4 75.2773 16.1547 75.7573 15.664C76.2373 15.1733 76.4773 14.528 76.4773 13.728C76.4773 12.928 76.2373 12.2827 75.7573 11.792C75.2773 11.3013 74.6693 11.056 73.9333 11.056C73.1973 11.056 72.5893 11.3013 72.1093 11.792C71.6399 12.2827 71.4053 12.928 71.4053 13.728C71.4053 14.528 71.6399 15.1733 72.1093 15.664C72.5893 16.1547 73.1973 16.4 73.9333 16.4ZM89.6756 9.36C90.753 9.36 91.617 9.67467 92.2676 10.304C92.9183 10.9333 93.2436 11.8667 93.2436 13.104V18H91.2436V13.36C91.2436 12.6133 91.0676 12.0533 90.7156 11.68C90.3636 11.296 89.8623 11.104 89.2116 11.104C88.4756 11.104 87.8943 11.328 87.4676 11.776C87.041 12.2133 86.8276 12.848 86.8276 13.68V18H84.8276V6.128H86.8276V10.448C87.1583 10.096 87.5636 9.82933 88.0436 9.648C88.5343 9.456 89.0783 9.36 89.6756 9.36ZM99.0448 9.36C100.303 9.36 101.263 9.664 101.925 10.272C102.597 10.8693 102.933 11.776 102.933 12.992V18H101.045V16.96C100.799 17.3333 100.447 17.6213 99.9888 17.824C99.5408 18.016 98.9968 18.112 98.3568 18.112C97.7168 18.112 97.1568 18.0053 96.6768 17.792C96.1968 17.568 95.8234 17.264 95.5568 16.88C95.3008 16.4853 95.1728 16.0427 95.1728 15.552C95.1728 14.784 95.4554 14.1707 96.0208 13.712C96.5968 13.2427 97.4981 13.008 98.7248 13.008H100.933V12.88C100.933 12.2827 100.751 11.824 100.389 11.504C100.037 11.184 99.5088 11.024 98.8048 11.024C98.3248 11.024 97.8501 11.0987 97.3808 11.248C96.9221 11.3973 96.5328 11.6053 96.2128 11.872L95.4288 10.416C95.8768 10.0747 96.4154 9.81333 97.0448 9.632C97.6741 9.45067 98.3408 9.36 99.0448 9.36ZM98.7728 16.656C99.2741 16.656 99.7168 16.544 100.101 16.32C100.495 16.0853 100.773 15.7547 100.933 15.328V14.336H98.8688C97.7168 14.336 97.1408 14.7147 97.1408 15.472C97.1408 15.8347 97.2848 16.1227 97.5728 16.336C97.8608 16.5493 98.2608 16.656 98.7728 16.656ZM96.0528 6.096H98.4048L100.565 8.288H98.8368L96.0528 6.096ZM110.348 9.36C111.425 9.36 112.289 9.67467 112.94 10.304C113.59 10.9333 113.916 11.8667 113.916 13.104V18H111.916V13.36C111.916 12.6133 111.74 12.0533 111.388 11.68C111.036 11.296 110.534 11.104 109.884 11.104C109.148 11.104 108.566 11.328 108.14 11.776C107.713 12.2133 107.5 12.848 107.5 13.68V18H105.5V9.456H107.404V10.56C107.734 10.1653 108.15 9.86667 108.652 9.664C109.153 9.46133 109.718 9.36 110.348 9.36ZM125.011 9.456V16.704C125.011 19.712 123.475 21.216 120.403 21.216C119.581 21.216 118.803 21.1093 118.067 20.896C117.331 20.6933 116.723 20.3947 116.243 20L117.139 18.496C117.512 18.8053 117.981 19.0507 118.547 19.232C119.123 19.424 119.704 19.52 120.291 19.52C121.229 19.52 121.917 19.3067 122.355 18.88C122.792 18.4533 123.011 17.8027 123.011 16.928V16.48C122.669 16.8533 122.253 17.136 121.763 17.328C121.272 17.52 120.733 17.616 120.147 17.616C119.336 17.616 118.6 17.4453 117.939 17.104C117.288 16.752 116.771 16.2613 116.387 15.632C116.013 15.0027 115.827 14.2827 115.827 13.472C115.827 12.6613 116.013 11.9467 116.387 11.328C116.771 10.6987 117.288 10.2133 117.939 9.872C118.6 9.53067 119.336 9.36 120.147 9.36C120.765 9.36 121.325 9.46133 121.827 9.664C122.339 9.86667 122.765 10.176 123.107 10.592V9.456H125.011ZM120.451 15.92C121.208 15.92 121.827 15.696 122.307 15.248C122.797 14.7893 123.043 14.1973 123.043 13.472C123.043 12.7573 122.797 12.176 122.307 11.728C121.827 11.28 121.208 11.056 120.451 11.056C119.683 11.056 119.053 11.28 118.563 11.728C118.083 12.176 117.843 12.7573 117.843 13.472C117.843 14.1973 118.083 14.7893 118.563 15.248C119.053 15.696 119.683 15.92 120.451 15.92ZM136.91 9.36C137.987 9.36 138.851 9.67467 139.502 10.304C140.153 10.9333 140.478 11.8667 140.478 13.104V18H138.478V13.36C138.478 12.6133 138.302 12.0533 137.95 11.68C137.598 11.296 137.097 11.104 136.446 11.104C135.71 11.104 135.129 11.328 134.702 11.776C134.275 12.2133 134.062 12.848 134.062 13.68V18H132.062V9.456H133.966V10.56C134.297 10.1653 134.713 9.86667 135.214 9.664C135.715 9.46133 136.281 9.36 136.91 9.36ZM147.863 9.36C148.94 9.36 149.804 9.67467 150.455 10.304C151.106 10.9333 151.431 11.8667 151.431 13.104V18H149.431V13.36C149.431 12.6133 149.255 12.0533 148.903 11.68C148.551 11.296 148.05 11.104 147.399 11.104C146.663 11.104 146.082 11.328 145.655 11.776C145.228 12.2133 145.015 12.848 145.015 13.68V18H143.015V6.128H145.015V10.448C145.346 10.096 145.751 9.82933 146.231 9.648C146.722 9.456 147.266 9.36 147.863 9.36ZM157.232 9.36C158.491 9.36 159.451 9.664 160.112 10.272C160.784 10.8693 161.12 11.776 161.12 12.992V18H159.232V16.96C158.987 17.3333 158.635 17.6213 158.176 17.824C157.728 18.016 157.184 18.112 156.544 18.112C155.904 18.112 155.344 18.0053 154.864 17.792C154.384 17.568 154.011 17.264 153.744 16.88C153.488 16.4853 153.36 16.0427 153.36 15.552C153.36 14.784 153.643 14.1707 154.208 13.712C154.784 13.2427 155.686 13.008 156.912 13.008H159.12V12.88C159.12 12.2827 158.939 11.824 158.576 11.504C158.224 11.184 157.696 11.024 156.992 11.024C156.512 11.024 156.038 11.0987 155.568 11.248C155.11 11.3973 154.72 11.6053 154.4 11.872L153.616 10.416C154.064 10.0747 154.603 9.81333 155.232 9.632C155.862 9.45067 156.528 9.36 157.232 9.36ZM156.96 16.656C157.462 16.656 157.904 16.544 158.288 16.32C158.683 16.0853 158.96 15.7547 159.12 15.328V14.336H157.056C155.904 14.336 155.328 14.7147 155.328 15.472C155.328 15.8347 155.472 16.1227 155.76 16.336C156.048 16.5493 156.448 16.656 156.96 16.656ZM168.535 9.36C169.612 9.36 170.476 9.67467 171.127 10.304C171.778 10.9333 172.103 11.8667 172.103 13.104V18H170.103V13.36C170.103 12.6133 169.927 12.0533 169.575 11.68C169.223 11.296 168.722 11.104 168.071 11.104C167.335 11.104 166.754 11.328 166.327 11.776C165.9 12.2133 165.687 12.848 165.687 13.68V18H163.687V9.456H165.591V10.56C165.922 10.1653 166.338 9.86667 166.839 9.664C167.34 9.46133 167.906 9.36 168.535 9.36ZM179.488 9.36C180.565 9.36 181.429 9.67467 182.08 10.304C182.731 10.9333 183.056 11.8667 183.056 13.104V18H181.056V13.36C181.056 12.6133 180.88 12.0533 180.528 11.68C180.176 11.296 179.675 11.104 179.024 11.104C178.288 11.104 177.707 11.328 177.28 11.776C176.853 12.2133 176.64 12.848 176.64 13.68V18H174.64V6.128H176.64V10.448C176.971 10.096 177.376 9.82933 177.856 9.648C178.347 9.456 178.891 9.36 179.488 9.36ZM193.935 18.112C193.05 18.112 192.255 17.9253 191.551 17.552C190.847 17.1787 190.298 16.6613 189.903 16C189.508 15.328 189.311 14.5707 189.311 13.728C189.311 12.8853 189.508 12.1333 189.903 11.472C190.298 10.8107 190.842 10.2933 191.535 9.92C192.239 9.54667 193.039 9.36 193.935 9.36C194.778 9.36 195.514 9.53067 196.143 9.872C196.783 10.2133 197.263 10.704 197.583 11.344L196.047 12.24C195.802 11.8453 195.492 11.552 195.119 11.36C194.756 11.1573 194.356 11.056 193.919 11.056C193.172 11.056 192.554 11.3013 192.063 11.792C191.572 12.272 191.327 12.9173 191.327 13.728C191.327 14.5387 191.567 15.1893 192.047 15.68C192.538 16.16 193.162 16.4 193.919 16.4C194.356 16.4 194.756 16.304 195.119 16.112C195.492 15.9093 195.802 15.6107 196.047 15.216L197.583 16.112C197.252 16.752 196.767 17.248 196.127 17.6C195.498 17.9413 194.767 18.112 193.935 18.112ZM204.082 9.36C205.159 9.36 206.023 9.67467 206.674 10.304C207.325 10.9333 207.65 11.8667 207.65 13.104V18H205.65V13.36C205.65 12.6133 205.474 12.0533 205.122 11.68C204.77 11.296 204.269 11.104 203.618 11.104C202.882 11.104 202.301 11.328 201.874 11.776C201.447 12.2133 201.234 12.848 201.234 13.68V18H199.234V6.128H201.234V10.448C201.565 10.096 201.97 9.82933 202.45 9.648C202.941 9.456 203.485 9.36 204.082 9.36ZM214.105 18.112C213.241 18.112 212.462 17.9253 211.769 17.552C211.076 17.1787 210.532 16.6613 210.137 16C209.753 15.328 209.561 14.5707 209.561 13.728C209.561 12.8853 209.753 12.1333 210.137 11.472C210.532 10.8107 211.076 10.2933 211.769 9.92C212.462 9.54667 213.241 9.36 214.105 9.36C214.98 9.36 215.764 9.54667 216.457 9.92C217.15 10.2933 217.689 10.8107 218.073 11.472C218.468 12.1333 218.665 12.8853 218.665 13.728C218.665 14.5707 218.468 15.328 218.073 16C217.689 16.6613 217.15 17.1787 216.457 17.552C215.764 17.9253 214.98 18.112 214.105 18.112ZM214.105 16.4C214.841 16.4 215.449 16.1547 215.929 15.664C216.409 15.1733 216.649 14.528 216.649 13.728C216.649 12.928 216.409 12.2827 215.929 11.792C215.449 11.3013 214.841 11.056 214.105 11.056C213.369 11.056 212.761 11.3013 212.281 11.792C211.812 12.2827 211.577 12.928 211.577 13.728C211.577 14.528 211.812 15.1733 212.281 15.664C212.761 16.1547 213.369 16.4 214.105 16.4ZM214.905 6.096H217.257L214.473 8.288H212.745L214.905 6.096ZM225.426 9.36C226.503 9.36 227.367 9.67467 228.018 10.304C228.668 10.9333 228.994 11.8667 228.994 13.104V18H226.994V13.36C226.994 12.6133 226.818 12.0533 226.466 11.68C226.114 11.296 225.612 11.104 224.962 11.104C224.226 11.104 223.644 11.328 223.218 11.776C222.791 12.2133 222.578 12.848 222.578 13.68V18H220.578V9.456H222.482V10.56C222.812 10.1653 223.228 9.86667 223.73 9.664C224.231 9.46133 224.796 9.36 225.426 9.36ZM240.089 9.456V16.704C240.089 19.712 238.553 21.216 235.481 21.216C234.66 21.216 233.881 21.1093 233.145 20.896C232.409 20.6933 231.801 20.3947 231.321 20L232.217 18.496C232.59 18.8053 233.06 19.0507 233.625 19.232C234.201 19.424 234.782 19.52 235.369 19.52C236.308 19.52 236.996 19.3067 237.433 18.88C237.87 18.4533 238.089 17.8027 238.089 16.928V16.48C237.748 16.8533 237.332 17.136 236.841 17.328C236.35 17.52 235.812 17.616 235.225 17.616C234.414 17.616 233.678 17.4453 233.017 17.104C232.366 16.752 231.849 16.2613 231.465 15.632C231.092 15.0027 230.905 14.2827 230.905 13.472C230.905 12.6613 231.092 11.9467 231.465 11.328C231.849 10.6987 232.366 10.2133 233.017 9.872C233.678 9.53067 234.414 9.36 235.225 9.36C235.844 9.36 236.404 9.46133 236.905 9.664C237.417 9.86667 237.844 10.176 238.185 10.592V9.456H240.089ZM235.529 15.92C236.286 15.92 236.905 15.696 237.385 15.248C237.876 14.7893 238.121 14.1973 238.121 13.472C238.121 12.7573 237.876 12.176 237.385 11.728C236.905 11.28 236.286 11.056 235.529 11.056C234.761 11.056 234.132 11.28 233.641 11.728C233.161 12.176 232.921 12.7573 232.921 13.472C232.921 14.1973 233.161 14.7893 233.641 15.248C234.132 15.696 234.761 15.92 235.529 15.92Z" fill="#363636"/>
<path fill-rule="evenodd" clip-rule="evenodd" d="M26.8745 9.648V8.99733C26.8636 7.99467 26.0236 7.18933 24.9982 7.2H18.7473V4.19733C18.7418 3.86133 18.4636 3.59467 18.1255 3.6H16.2491V1.79733C16.2436 1.46133 15.9655 1.19467 15.6218 1.2H7.13455L6.06545 0.176C5.82 -0.0586667 5.42727 -0.0586667 5.18182 0.176L1.61455 3.6H0.627273C0.283636 3.59467 0.00545455 3.86133 0 4.19733V20.9973C0.00545455 21.3333 0.283636 21.6 0.627273 21.6H3.19091C3.28364 22.0373 3.47455 22.448 3.75273 22.8H2.49818C2.16 22.8 1.88727 23.0667 1.88727 23.3973C1.88727 23.728 2.16 24 2.49818 24H6.25091C7.72364 24.0053 8.99455 23.008 9.31091 21.6H20.6891C20.7818 22.0373 20.9727 22.448 21.2509 22.8H20.0018C19.6636 22.8 19.3909 23.0667 19.3909 23.3973C19.3909 23.728 19.6636 24 20.0018 24H23.7545C25.2218 24.0053 26.4982 23.0027 26.8091 21.6H29.3727C29.7164 21.6053 29.9945 21.3333 30 21.0027V20.9973V13.2C29.9836 11.4293 28.6636 9.92533 26.8745 9.648ZM15 2.4V3.6H9.63273L8.38364 2.4H15ZM5.62364 1.44533L6.43091 2.224L7.86545 3.6H3.38182L5.62364 1.44533ZM6.25091 22.8C5.23636 22.784 4.42364 21.9627 4.44545 20.9653C4.46182 19.9733 5.30182 19.1787 6.32182 19.2C7.32545 19.216 8.12727 20.016 8.12727 20.9973C8.11636 22 7.27636 22.8053 6.25091 22.8ZM17.4982 7.79733V18H13.2491C12.9109 18 12.6382 18.2667 12.6382 18.5973C12.6382 18.928 12.9109 19.2 13.2491 19.2H17.4982V20.4H9.31091C8.93455 18.7467 7.25455 17.7067 5.56364 18.0747C4.37455 18.336 3.44727 19.2427 3.18545 20.4H1.24909V10.8H3.74727C4.08545 10.8 4.35818 10.5333 4.35818 10.2027C4.35818 9.872 4.09091 9.6 3.74727 9.6H1.24909V8.4H8.74909C9.08727 8.4 9.36 8.13333 9.36 7.80267C9.36 7.472 9.08727 7.20533 8.74909 7.20533H1.24909V4.8H17.4982V7.79733ZM20.6891 20.4H18.7527V19.2H21.2564C20.9727 19.552 20.7818 19.9627 20.6891 20.4ZM25.6255 21.0027C25.6418 22.016 24.8182 22.848 23.7818 22.8693C22.7455 22.8907 21.8945 22.08 21.8727 21.0667C21.8564 20.0533 22.68 19.2213 23.7164 19.2C23.7273 19.2 23.7327 19.2 23.7436 19.2H23.7491C24.7745 19.1893 25.6091 19.9947 25.62 20.9973C25.6255 20.9973 25.6255 21.0027 25.6255 21.0027ZM28.7509 20.4H26.8145C26.5036 18.992 25.2273 17.9893 23.7545 18H18.7527V8.4H25.0036C25.3473 8.39467 25.6255 8.66133 25.6309 8.99733V9.6H21.2564C20.9127 9.59467 20.6345 9.86133 20.6291 10.1973V15.6C20.6345 15.936 20.9127 16.2027 21.2509 16.1973H28.7509V20.4ZM23.1273 10.8V14.9973H21.8727V10.8H23.1273ZM28.7509 14.9973H24.3764V10.8H26.2527C27.6218 10.7893 28.74 11.8613 28.7509 13.2V14.9973ZM10.8055 19.2H11.1982C11.5364 19.2 11.8091 18.9333 11.8091 18.6027C11.8091 18.272 11.5364 18.0053 11.1982 18.0053H10.8055C10.4673 18.0053 10.1945 18.272 10.1945 18.6027C10.1945 18.9333 10.4673 19.2 10.8055 19.2ZM10.8055 8.4H11.1982C11.5364 8.4 11.8091 8.13333 11.8091 7.80267C11.8091 7.472 11.5364 7.20533 11.1982 7.20533H10.8055C10.4673 7.20533 10.1945 7.472 10.1945 7.80267C10.1945 8.13333 10.4673 8.4 10.8055 8.4Z" fill="#42BA7C"/>
</svg>
