<svg width="236" height="30" viewBox="0 0 236 30" fill="none" xmlns="http://www.w3.org/2000/svg">
<path d="M45.688 21.16C44.5573 21.16 43.5333 20.9147 42.616 20.424C41.7093 19.9227 40.9947 19.2347 40.472 18.36C39.96 17.4853 39.704 16.4987 39.704 15.4C39.704 14.3013 39.9653 13.3147 40.488 12.44C41.0107 11.5653 41.7253 10.8827 42.632 10.392C43.5493 9.89067 44.5733 9.64 45.704 9.64C46.6213 9.64 47.4587 9.8 48.216 10.12C48.9733 10.44 49.6133 10.904 50.136 11.512L48.792 12.776C47.9813 11.9013 46.984 11.464 45.8 11.464C45.032 11.464 44.344 11.6347 43.736 11.976C43.128 12.3067 42.6533 12.7707 42.312 13.368C41.9707 13.9653 41.8 14.6427 41.8 15.4C41.8 16.1573 41.9707 16.8347 42.312 17.432C42.6533 18.0293 43.128 18.4987 43.736 18.84C44.344 19.1707 45.032 19.336 45.8 19.336C46.984 19.336 47.9813 18.8933 48.792 18.008L50.136 19.288C49.6133 19.896 48.968 20.36 48.2 20.68C47.4427 21 46.6053 21.16 45.688 21.16ZM56.785 12.36C57.8623 12.36 58.7263 12.6747 59.377 13.304C60.0277 13.9333 60.353 14.8667 60.353 16.104V21H58.353V16.36C58.353 15.6133 58.177 15.0533 57.825 14.68C57.473 14.296 56.9717 14.104 56.321 14.104C55.585 14.104 55.0037 14.328 54.577 14.776C54.1503 15.2133 53.937 15.848 53.937 16.68V21H51.937V9.128H53.937V13.448C54.2677 13.096 54.673 12.8293 55.153 12.648C55.6437 12.456 56.1877 12.36 56.785 12.36ZM66.1541 12.36C67.4128 12.36 68.3728 12.664 69.0341 13.272C69.7061 13.8693 70.0421 14.776 70.0421 15.992V21H68.1541V19.96C67.9088 20.3333 67.5568 20.6213 67.0981 20.824C66.6501 21.016 66.1061 21.112 65.4661 21.112C64.8261 21.112 64.2661 21.0053 63.7861 20.792C63.3061 20.568 62.9328 20.264 62.6661 19.88C62.4101 19.4853 62.2821 19.0427 62.2821 18.552C62.2821 17.784 62.5648 17.1707 63.1301 16.712C63.7061 16.2427 64.6075 16.008 65.8341 16.008H68.0421V15.88C68.0421 15.2827 67.8608 14.824 67.4981 14.504C67.1461 14.184 66.6181 14.024 65.9141 14.024C65.4341 14.024 64.9595 14.0987 64.4901 14.248C64.0315 14.3973 63.6421 14.6053 63.3221 14.872L62.5381 13.416C62.9861 13.0747 63.5248 12.8133 64.1541 12.632C64.7835 12.4507 65.4501 12.36 66.1541 12.36ZM65.8821 19.656C66.3835 19.656 66.8261 19.544 67.2101 19.32C67.6048 19.0853 67.8821 18.7547 68.0421 18.328V17.336H65.9781C64.8261 17.336 64.2501 17.7147 64.2501 18.472C64.2501 18.8347 64.3941 19.1227 64.6821 19.336C64.9701 19.5493 65.3701 19.656 65.8821 19.656ZM67.7221 11.288L66.3301 10.408L64.9381 11.288H63.2741L65.4341 9.576H67.2261L69.3861 11.288H67.7221ZM69.8981 7.944H72.0421L69.6101 9.816H68.0741L69.8981 7.944ZM77.7449 20.536C77.5102 20.728 77.2222 20.872 76.8809 20.968C76.5502 21.064 76.1982 21.112 75.8249 21.112C74.8862 21.112 74.1609 20.8667 73.6489 20.376C73.1369 19.8853 72.8809 19.1707 72.8809 18.232V14.12H71.4729V12.52H72.8809V10.568H74.8809V12.52H77.1689V14.12H74.8809V18.184C74.8809 18.6 74.9822 18.92 75.1849 19.144C75.3875 19.3573 75.6809 19.464 76.0649 19.464C76.5129 19.464 76.8862 19.3467 77.1849 19.112L77.7449 20.536ZM83.812 9.128H85.812V21H83.812V9.128ZM96.709 12.456V21H94.805V19.912C94.485 20.296 94.085 20.5947 93.605 20.808C93.125 21.0107 92.6077 21.112 92.053 21.112C90.9117 21.112 90.0103 20.7973 89.349 20.168C88.6983 19.528 88.373 18.584 88.373 17.336V12.456H90.373V17.064C90.373 17.832 90.5437 18.408 90.885 18.792C91.237 19.1653 91.733 19.352 92.373 19.352C93.0877 19.352 93.653 19.1333 94.069 18.696C94.4957 18.248 94.709 17.608 94.709 16.776V12.456H96.709ZM95.413 12.456H95.749C96.0583 12.456 96.2983 12.3653 96.469 12.184C96.6503 11.992 96.741 11.7413 96.741 11.432C96.741 11.0587 96.6343 10.728 96.421 10.44L97.653 9.992C97.973 10.3973 98.133 10.8987 98.133 11.496C98.133 12.232 97.9197 12.8133 97.493 13.24C97.0663 13.6667 96.4797 13.88 95.733 13.88H95.413V12.456ZM106.195 13.48C106.643 13.8747 106.989 14.3493 107.235 14.904C107.48 15.4587 107.603 16.0667 107.603 16.728C107.603 17.5707 107.405 18.328 107.011 19C106.627 19.6613 106.088 20.1787 105.395 20.552C104.701 20.9253 103.917 21.112 103.043 21.112C102.179 21.112 101.4 20.9253 100.707 20.552C100.013 20.1787 99.4693 19.6613 99.0746 19C98.6906 18.328 98.4986 17.5707 98.4986 16.728C98.4986 15.8853 98.696 15.1333 99.0906 14.472C99.4853 13.8107 100.029 13.2933 100.723 12.92C101.416 12.5467 102.2 12.36 103.075 12.36C103.384 12.36 103.741 12.3813 104.147 12.424C104.232 12.4347 104.355 12.4453 104.515 12.456C104.685 12.4667 104.84 12.472 104.979 12.472C105.341 12.472 105.619 12.376 105.811 12.184C106.003 11.9813 106.099 11.7253 106.099 11.416C106.099 11.0747 105.987 10.744 105.763 10.424L106.979 9.976C107.309 10.4347 107.475 10.936 107.475 11.48C107.475 11.9493 107.363 12.3547 107.139 12.696C106.915 13.0373 106.6 13.2987 106.195 13.48ZM103.043 19.4C103.779 19.4 104.387 19.1547 104.867 18.664C105.347 18.1733 105.587 17.528 105.587 16.728C105.587 15.928 105.347 15.2827 104.867 14.792C104.387 14.3013 103.779 14.056 103.043 14.056C102.307 14.056 101.699 14.3013 101.219 14.792C100.749 15.2827 100.515 15.928 100.515 16.728C100.515 17.528 100.749 18.1733 101.219 18.664C101.699 19.1547 102.307 19.4 103.043 19.4ZM103.043 24.248C102.765 24.248 102.536 24.1627 102.355 23.992C102.173 23.8213 102.083 23.592 102.083 23.304C102.083 23.0267 102.173 22.792 102.355 22.6C102.536 22.4187 102.765 22.328 103.043 22.328C103.32 22.328 103.549 22.4187 103.731 22.6C103.912 22.792 104.003 23.0267 104.003 23.304C104.003 23.592 103.912 23.8213 103.731 23.992C103.549 24.1627 103.32 24.248 103.043 24.248ZM114.363 12.36C115.44 12.36 116.304 12.6747 116.955 13.304C117.606 13.9333 117.931 14.8667 117.931 16.104V21H115.931V16.36C115.931 15.6133 115.755 15.0533 115.403 14.68C115.051 14.296 114.55 14.104 113.899 14.104C113.163 14.104 112.582 14.328 112.155 14.776C111.728 15.2133 111.515 15.848 111.515 16.68V21H109.515V12.456H111.419V13.56C111.75 13.1653 112.166 12.8667 112.667 12.664C113.168 12.4613 113.734 12.36 114.363 12.36ZM129.026 12.456V19.704C129.026 22.712 127.49 24.216 124.418 24.216C123.597 24.216 122.818 24.1093 122.082 23.896C121.346 23.6933 120.738 23.3947 120.258 23L121.154 21.496C121.528 21.8053 121.997 22.0507 122.562 22.232C123.138 22.424 123.72 22.52 124.306 22.52C125.245 22.52 125.933 22.3067 126.37 21.88C126.808 21.4533 127.026 20.8027 127.026 19.928V19.48C126.685 19.8533 126.269 20.136 125.778 20.328C125.288 20.52 124.749 20.616 124.162 20.616C123.352 20.616 122.616 20.4453 121.954 20.104C121.304 19.752 120.786 19.2613 120.402 18.632C120.029 18.0027 119.842 17.2827 119.842 16.472C119.842 15.6613 120.029 14.9467 120.402 14.328C120.786 13.6987 121.304 13.2133 121.954 12.872C122.616 12.5307 123.352 12.36 124.162 12.36C124.781 12.36 125.341 12.4613 125.842 12.664C126.354 12.8667 126.781 13.176 127.122 13.592V12.456H129.026ZM124.466 18.92C125.224 18.92 125.842 18.696 126.322 18.248C126.813 17.7893 127.058 17.1973 127.058 16.472C127.058 15.7573 126.813 15.176 126.322 14.728C125.842 14.28 125.224 14.056 124.466 14.056C123.698 14.056 123.069 14.28 122.578 14.728C122.098 15.176 121.858 15.7573 121.858 16.472C121.858 17.1973 122.098 17.7893 122.578 18.248C123.069 18.696 123.698 18.92 124.466 18.92ZM140.926 12.36C142.003 12.36 142.867 12.6747 143.518 13.304C144.168 13.9333 144.494 14.8667 144.494 16.104V21H142.494V16.36C142.494 15.6133 142.318 15.0533 141.966 14.68C141.614 14.296 141.112 14.104 140.462 14.104C139.726 14.104 139.144 14.328 138.718 14.776C138.291 15.2133 138.078 15.848 138.078 16.68V21H136.078V9.128H138.078V13.448C138.408 13.096 138.814 12.8293 139.294 12.648C139.784 12.456 140.328 12.36 140.926 12.36ZM150.295 12.36C151.553 12.36 152.513 12.664 153.175 13.272C153.847 13.8693 154.183 14.776 154.183 15.992V21H152.295V19.96C152.049 20.3333 151.697 20.6213 151.239 20.824C150.791 21.016 150.247 21.112 149.607 21.112C148.967 21.112 148.407 21.0053 147.927 20.792C147.447 20.568 147.073 20.264 146.807 19.88C146.551 19.4853 146.423 19.0427 146.423 18.552C146.423 17.784 146.705 17.1707 147.271 16.712C147.847 16.2427 148.748 16.008 149.975 16.008H152.183V15.88C152.183 15.2827 152.001 14.824 151.639 14.504C151.287 14.184 150.759 14.024 150.055 14.024C149.575 14.024 149.1 14.0987 148.631 14.248C148.172 14.3973 147.783 14.6053 147.463 14.872L146.679 13.416C147.127 13.0747 147.665 12.8133 148.295 12.632C148.924 12.4507 149.591 12.36 150.295 12.36ZM150.023 19.656C150.524 19.656 150.967 19.544 151.351 19.32C151.745 19.0853 152.023 18.7547 152.183 18.328V17.336H150.119C148.967 17.336 148.391 17.7147 148.391 18.472C148.391 18.8347 148.535 19.1227 148.823 19.336C149.111 19.5493 149.511 19.656 150.023 19.656ZM147.303 9.096H149.655L151.815 11.288H150.087L147.303 9.096ZM161.598 12.36C162.675 12.36 163.539 12.6747 164.19 13.304C164.84 13.9333 165.166 14.8667 165.166 16.104V21H163.166V16.36C163.166 15.6133 162.99 15.0533 162.638 14.68C162.286 14.296 161.784 14.104 161.134 14.104C160.398 14.104 159.816 14.328 159.39 14.776C158.963 15.2133 158.75 15.848 158.75 16.68V21H156.75V12.456H158.654V13.56C158.984 13.1653 159.4 12.8667 159.902 12.664C160.403 12.4613 160.968 12.36 161.598 12.36ZM176.261 12.456V19.704C176.261 22.712 174.725 24.216 171.653 24.216C170.831 24.216 170.053 24.1093 169.317 23.896C168.581 23.6933 167.973 23.3947 167.493 23L168.389 21.496C168.762 21.8053 169.231 22.0507 169.797 22.232C170.373 22.424 170.954 22.52 171.541 22.52C172.479 22.52 173.167 22.3067 173.605 21.88C174.042 21.4533 174.261 20.8027 174.261 19.928V19.48C173.919 19.8533 173.503 20.136 173.013 20.328C172.522 20.52 171.983 20.616 171.397 20.616C170.586 20.616 169.85 20.4453 169.189 20.104C168.538 19.752 168.021 19.2613 167.637 18.632C167.263 18.0027 167.077 17.2827 167.077 16.472C167.077 15.6613 167.263 14.9467 167.637 14.328C168.021 13.6987 168.538 13.2133 169.189 12.872C169.85 12.5307 170.586 12.36 171.397 12.36C172.015 12.36 172.575 12.4613 173.077 12.664C173.589 12.8667 174.015 13.176 174.357 13.592V12.456H176.261ZM171.701 18.92C172.458 18.92 173.077 18.696 173.557 18.248C174.047 17.7893 174.293 17.1973 174.293 16.472C174.293 15.7573 174.047 15.176 173.557 14.728C173.077 14.28 172.458 14.056 171.701 14.056C170.933 14.056 170.303 14.28 169.813 14.728C169.333 15.176 169.093 15.7573 169.093 16.472C169.093 17.1973 169.333 17.7893 169.813 18.248C170.303 18.696 170.933 18.92 171.701 18.92ZM191.68 9.128V21H189.76V19.896C189.429 20.3013 189.019 20.6053 188.528 20.808C188.048 21.0107 187.515 21.112 186.928 21.112C186.107 21.112 185.365 20.9307 184.704 20.568C184.053 20.2053 183.541 19.6933 183.168 19.032C182.795 18.36 182.608 17.592 182.608 16.728C182.608 15.864 182.795 15.1013 183.168 14.44C183.541 13.7787 184.053 13.2667 184.704 12.904C185.365 12.5413 186.107 12.36 186.928 12.36C187.493 12.36 188.011 12.456 188.48 12.648C188.949 12.84 189.349 13.128 189.68 13.512V9.128H191.68ZM187.168 19.4C187.648 19.4 188.08 19.2933 188.464 19.08C188.848 18.856 189.152 18.5413 189.376 18.136C189.6 17.7307 189.712 17.2613 189.712 16.728C189.712 16.1947 189.6 15.7253 189.376 15.32C189.152 14.9147 188.848 14.6053 188.464 14.392C188.08 14.168 187.648 14.056 187.168 14.056C186.688 14.056 186.256 14.168 185.872 14.392C185.488 14.6053 185.184 14.9147 184.96 15.32C184.736 15.7253 184.624 16.1947 184.624 16.728C184.624 17.2613 184.736 17.7307 184.96 18.136C185.184 18.5413 185.488 18.856 185.872 19.08C186.256 19.2933 186.688 19.4 187.168 19.4ZM186.528 10.152H192.992V11.464H186.528V10.152ZM197.56 12.36C198.819 12.36 199.779 12.664 200.44 13.272C201.112 13.8693 201.448 14.776 201.448 15.992V21H199.56V19.96C199.315 20.3333 198.963 20.6213 198.504 20.824C198.056 21.016 197.512 21.112 196.872 21.112C196.232 21.112 195.672 21.0053 195.192 20.792C194.712 20.568 194.339 20.264 194.072 19.88C193.816 19.4853 193.688 19.0427 193.688 18.552C193.688 17.784 193.971 17.1707 194.536 16.712C195.112 16.2427 196.014 16.008 197.24 16.008H199.448V15.88C199.448 15.2827 199.267 14.824 198.904 14.504C198.552 14.184 198.024 14.024 197.32 14.024C196.84 14.024 196.366 14.0987 195.896 14.248C195.438 14.3973 195.048 14.6053 194.728 14.872L193.944 13.416C194.392 13.0747 194.931 12.8133 195.56 12.632C196.19 12.4507 196.856 12.36 197.56 12.36ZM197.288 19.656C197.79 19.656 198.232 19.544 198.616 19.32C199.011 19.0853 199.288 18.7547 199.448 18.328V17.336H197.384C196.232 17.336 195.656 17.7147 195.656 18.472C195.656 18.8347 195.8 19.1227 196.088 19.336C196.376 19.5493 196.776 19.656 197.288 19.656ZM199.128 11.288L197.736 10.408L196.344 11.288H194.68L196.84 9.576H198.632L200.792 11.288H199.128ZM197.992 7.944H200.136L201.96 9.816H200.424L197.992 7.944ZM212.287 12.456V21H210.383V19.912C210.063 20.296 209.663 20.5947 209.183 20.808C208.703 21.0107 208.186 21.112 207.631 21.112C206.49 21.112 205.588 20.7973 204.927 20.168C204.276 19.528 203.951 18.584 203.951 17.336V12.456H205.951V17.064C205.951 17.832 206.122 18.408 206.463 18.792C206.815 19.1653 207.311 19.352 207.951 19.352C208.666 19.352 209.231 19.1333 209.647 18.696C210.074 18.248 210.287 17.608 210.287 16.776V12.456H212.287Z" fill="#363636"/>
<path fill-rule="evenodd" clip-rule="evenodd" d="M23.9291 5.31273C22.0145 5.31273 20.5636 4.17273 19.0255 2.96182C17.2582 1.57091 15.2509 0 12.2727 0C9.29455 0 7.28727 1.57091 5.52 2.96182C3.98182 4.17273 2.53091 5.31273 0.616364 5.31273C0.278182 5.31273 0 5.59091 0 5.92909V5.93455C0 13.2327 0.894546 18.0927 2.89091 21.6927C4.88182 25.2655 7.83818 27.4909 11.9673 29.9182C12.1582 30.0273 12.3873 30.0273 12.5782 29.9182C16.7073 27.4909 19.6636 25.2655 21.6545 21.6927C23.6509 18.0927 24.5455 13.2327 24.5455 5.93455C24.5509 5.59636 24.2727 5.31818 23.9291 5.31273C23.9345 5.31273 23.9291 5.31273 23.9291 5.31273ZM12.2727 28.6527C4.87091 24.2564 1.32545 20.4709 1.22727 6.52909C3.25091 6.32182 4.78364 5.12182 6.27273 3.95455C7.96364 2.62364 9.71455 1.24909 12.2727 1.24909C14.8309 1.24909 16.5818 2.62364 18.2727 3.95455C19.7618 5.12182 21.2945 6.32182 23.3182 6.52909C23.22 20.4709 19.6745 24.2564 12.2727 28.6527ZM5.02364 7.14C4.87091 6.84 4.51091 6.72 4.21091 6.87273C4.20545 6.87273 4.2 6.87818 4.19455 6.88364C4.11818 6.92182 4.04182 6.96 3.96 7.00364C3.66 7.16182 3.53455 7.53273 3.68182 7.83818C3.82364 8.14364 4.18364 8.27455 4.48909 8.12727C4.49455 8.12727 4.5 8.12182 4.50546 8.12182C4.59273 8.07818 4.68 8.03455 4.76727 7.98546C5.06727 7.81636 5.18182 7.44546 5.02364 7.14ZM21.2236 12.0382C21.24 12.0382 21.2618 12.0436 21.2782 12.0436C21.6 12.0436 21.8673 11.7927 21.8891 11.4709C21.8945 11.3945 21.9055 11.3127 21.9109 11.2309C21.9436 10.8927 21.6873 10.5927 21.3491 10.56C21.0164 10.5327 20.7218 10.7782 20.6891 11.1164C20.6891 11.1218 20.6891 11.1273 20.6891 11.1273C20.6836 11.2036 20.6727 11.28 20.6673 11.3618C20.6345 11.7 20.8855 12.0055 21.2236 12.0382ZM6.23455 6.92182C6.36545 6.92182 6.49091 6.87818 6.59455 6.80182C6.94909 6.54 7.29818 6.27273 7.63091 6.01091C9.19636 4.8 10.5491 3.74727 12.2727 3.74727C12.6164 3.74727 12.9 3.46909 12.9 3.12C12.9 2.77091 12.6218 2.49273 12.2727 2.49273C10.1345 2.49273 8.55818 3.72 6.88909 5.01273C6.55636 5.26909 6.21818 5.53091 5.87455 5.78182C5.60182 5.98909 5.53636 6.37636 5.73818 6.65455C5.85273 6.82364 6.03818 6.92182 6.23455 6.92182ZM12.2727 25.74C10.4455 24.66 8.79818 23.3073 7.38545 21.72C7.16727 21.4636 6.78545 21.4255 6.52909 21.6436C6.52364 21.6436 6.52364 21.6491 6.51818 21.6491C6.26182 21.8727 6.22909 22.2655 6.44727 22.5273C8.03455 24.3055 9.89455 25.8164 11.9564 27.0055C11.9564 27.0109 11.9564 27.0109 11.9618 27.0109C11.9782 27.0218 11.9945 27.0273 12.0109 27.0327C12.0218 27.0382 12.0273 27.0436 12.0382 27.0491C12.0545 27.0545 12.0655 27.06 12.0818 27.0655C12.0982 27.0709 12.1036 27.0709 12.1145 27.0764C12.1255 27.0818 12.1418 27.0818 12.1527 27.0818C12.1691 27.0873 12.18 27.0927 12.1964 27.0927C12.2127 27.0927 12.2345 27.0927 12.2509 27.0982H12.2945C12.3109 27.0927 12.3327 27.0927 12.3491 27.0927C12.36 27.0927 12.3764 27.0873 12.3873 27.0818C12.4036 27.0818 12.4145 27.0818 12.4309 27.0764C12.4418 27.0709 12.4527 27.0709 12.4636 27.0655C12.4745 27.06 12.4909 27.0545 12.5073 27.0491C12.5182 27.0436 12.5236 27.0382 12.5345 27.0327C12.5509 27.0273 12.5673 27.0218 12.5836 27.0109C12.5891 27.0109 12.5891 27.0109 12.5891 27.0055C14.6509 25.8164 16.5109 24.3055 18.0982 22.5273C19.9636 20.2909 21.1364 17.2636 21.6873 13.2709C21.7473 12.9382 21.5236 12.6164 21.1909 12.5564C20.8582 12.4964 20.5364 12.72 20.4764 13.0527C20.4764 13.0636 20.4709 13.08 20.4709 13.0909C19.9527 16.8436 18.8727 19.6636 17.16 21.7145C15.7473 23.3073 14.1 24.66 12.2727 25.74ZM16.2327 7.81636L9.82909 14.34L8.31273 12.7909C7.55455 12.0109 6.30545 11.9945 5.53091 12.7527C5.52 12.7636 5.50909 12.7745 5.49273 12.7909C4.71273 13.5927 4.71273 14.8636 5.49273 15.6655L8.42727 18.6545L8.44909 18.6764L8.46 18.6873L8.48727 18.7145C8.49273 18.72 8.49818 18.72 8.50364 18.7255L8.53091 18.7473C8.53091 18.7527 8.53636 18.7582 8.54182 18.7582L8.56909 18.7855C8.57455 18.7855 8.57455 18.7855 8.57455 18.7909L8.60182 18.8127C8.60727 18.8182 8.61273 18.8182 8.61818 18.8236L8.64546 18.8455C8.65091 18.8455 8.65636 18.8509 8.65636 18.8564L8.68909 18.8727C8.68909 18.8782 8.69455 18.8836 8.7 18.8836L8.72727 18.9055C8.73273 18.9055 8.73818 18.9109 8.74364 18.9109L8.77091 18.9327C8.77636 18.9327 8.77636 18.9382 8.78182 18.9382L8.80909 18.9545C8.81455 18.96 8.82 18.96 8.82545 18.9655L8.85273 18.9818C8.85818 18.9873 8.86364 18.9873 8.86909 18.9927L8.90182 19.0091C8.90727 19.0091 8.90727 19.0091 8.90727 19.0145L8.94 19.0309C8.94545 19.0309 8.95091 19.0364 8.95636 19.0364L8.98364 19.0527C8.98909 19.0527 8.99455 19.0527 9 19.0582L9.01636 19.0636L9.04909 19.08L9.08182 19.0909L9.08727 19.0964L9.12 19.1073C9.12545 19.1127 9.12545 19.1127 9.13091 19.1127L9.16364 19.1236C9.16909 19.1291 9.17455 19.1291 9.18 19.1291L9.19636 19.1345C9.20727 19.14 9.21818 19.1455 9.22909 19.1455L9.26182 19.1564C9.26727 19.1618 9.26727 19.1618 9.27273 19.1618L9.30545 19.1727H9.31636L9.34909 19.1836H9.36545L9.39818 19.1945H9.40909L9.44182 19.2055H9.46364L9.48 19.2109C9.49091 19.2109 9.49636 19.2109 9.50727 19.2164L9.54 19.2218H9.55636L9.58909 19.2273H9.61636C9.62727 19.2327 9.63818 19.2327 9.64909 19.2327L9.68182 19.2382H9.74727L9.78 19.2436H9.88364L9.91636 19.2382H9.98182L10.0145 19.2327C10.0255 19.2327 10.0364 19.2327 10.0473 19.2273H10.0745L10.1073 19.2218H10.1236L10.1564 19.2164C10.1673 19.2109 10.1782 19.2109 10.1891 19.2109L10.2 19.2055H10.2218L10.2545 19.1945H10.2655L10.2982 19.1836H10.3145L10.3473 19.1727H10.3582L10.3909 19.1618C10.3964 19.1618 10.3964 19.1618 10.4018 19.1564L10.4345 19.1455C10.4455 19.1455 10.4564 19.14 10.4673 19.1345L10.4836 19.1291C10.4891 19.1291 10.4945 19.1291 10.5 19.1236L10.5327 19.1127C10.5382 19.1127 10.5382 19.1127 10.5436 19.1073L10.5764 19.0964C10.5818 19.0964 10.5818 19.0909 10.5873 19.0909L10.62 19.08C10.6309 19.0745 10.6364 19.0691 10.6473 19.0636L10.6636 19.0582C10.6691 19.0582 10.6745 19.0527 10.68 19.0527L10.7073 19.0364C10.7127 19.0364 10.7127 19.0364 10.7182 19.0309L10.7509 19.0145C10.7618 19.0091 10.7673 19.0036 10.7782 18.9982L10.7945 18.9927C10.8 18.9873 10.8055 18.9873 10.8109 18.9818L10.8382 18.9655C10.8436 18.96 10.8491 18.96 10.8545 18.9545L10.8818 18.9382C10.8873 18.9382 10.8927 18.9327 10.8982 18.9327L10.9255 18.9109C10.9309 18.9055 10.9309 18.9055 10.9364 18.9055L10.9636 18.8836C10.9691 18.8836 10.9745 18.8782 10.9745 18.8727L11.0073 18.8564C11.0073 18.8509 11.0127 18.8455 11.0182 18.8455L11.0455 18.8236C11.0509 18.8236 11.0564 18.8182 11.0564 18.8127L11.0836 18.7909C11.0891 18.7855 11.1 18.78 11.1055 18.7745L11.1218 18.7636L11.1382 18.7473L11.1655 18.7255C11.1655 18.72 11.1709 18.72 11.1709 18.7145L11.1982 18.6927L11.2091 18.6818L11.2364 18.6545L11.2527 18.6382L19.0527 10.6909C19.8327 9.88909 19.8327 8.61818 19.0527 7.81636C18.2836 7.03636 17.0291 7.03091 16.2491 7.79455C16.2436 7.80545 16.2382 7.81091 16.2327 7.81636ZM18.1855 9.80727L10.3745 17.7655C10.3691 17.7655 10.3691 17.7655 10.3691 17.7709L10.3145 17.82H10.3091L10.2382 17.8745L10.1345 17.9291L10.0636 17.9564L9.95455 17.9836L9.9 17.9891H9.76364L9.70909 17.9836H9.70364L9.6 17.9564L9.54 17.9345L9.42546 17.8745L9.31636 17.7927L6.36 14.7818C6.06 14.4764 6.06 13.98 6.36 13.6745C6.65455 13.3745 7.12909 13.3691 7.42909 13.6582C7.43455 13.6636 7.44 13.6691 7.44545 13.6745L9.39818 15.6655C9.63818 15.9055 10.0255 15.9055 10.2655 15.6655L17.1 8.7C17.2473 8.55818 17.4436 8.47636 17.6455 8.47636C17.8473 8.47636 18.0436 8.55818 18.1855 8.7C18.48 9.00546 18.48 9.49636 18.1855 9.80727Z" fill="#42BA7C"/>
</svg>
